<svg xmlns="http://www.w3.org/2000/svg" width="24" height="24" viewBox="0 0 24 24" fill="#6ea36b" stroke="#547c52" stroke-width="1" stroke-linecap="round" stroke-linejoin="round">
  <path d="M15 2H6a2 2 0 0 0-2 2v16a2 2 0 0 0 2 2h12a2 2 0 0 0 2-2V7z" />
  <path d="M14 2v4a2 2 0 0 0 2 2h4" fill="#547c52" fill-opacity="0.3" />
  <circle cx="10" cy="12" r="2" fill="none" stroke-width="1.5" />
  <path d="m20 17-1.296-1.296a2.41 2.41 0 0 0-3.408 0L11 20M7 16l1.296-1.296a2.41 2.41 0 0 1 3.408 0L13 16" fill="none" stroke-width="1.5" />
</svg>
